<svg xmlns="http://www.w3.org/2000/svg" width="58.696" height="58.696" viewBox="0 0 58.696 58.696">
    <defs>
        <filter id="rr50hzh50a" width="58.696" height="58.696" x="0" y="0" filterUnits="userSpaceOnUse">
            <feOffset dy="3"/>
            <feGaussianBlur result="blur" stdDeviation="3"/>
            <feFlood flood-opacity=".161"/>
            <feComposite in2="blur" operator="in"/>
            <feComposite in="SourceGraphic"/>
        </filter>
    </defs>
    <g>
        <g filter="url(#rr50hzh50a)" transform="translate(9 6) matrix(1, 0, 0, 1, -9, -6)">
            <circle cx="20.348" cy="20.348" r="20.348" fill="#fff" transform="translate(9 6)"/>
        </g>
        <g>
            <path fill="#fbbb00" d="M4.585 145.184l-.72 2.689-2.632.056a10.363 10.363 0 0 1-.076-9.66l2.343.43 1.027 2.329a6.174 6.174 0 0 0 .058 4.157z" transform="translate(9 6) translate(9.824 9.57) translate(0 -132.681)"/>
            <path fill="#518ef8" d="M271.565 208.176a10.341 10.341 0 0 1-3.688 10l-2.952-.151-.418-2.608a6.165 6.165 0 0 0 2.653-3.148h-5.532v-4.093h9.937z" transform="translate(9 6) translate(9.824 9.57) translate(-251.055 -199.763)"/>
            <path fill="#28b446" d="M46.1 315.318a10.348 10.348 0 0 1-15.589-3.165l3.353-2.744a6.153 6.153 0 0 0 8.866 3.15z" transform="translate(9 6) translate(9.824 9.57) translate(-29.276 -296.906)"/>
            <path fill="#f14336" d="M44.416 2.382l-3.352 2.743a6.152 6.152 0 0 0-9.07 3.221l-3.37-2.759a10.347 10.347 0 0 1 15.792-3.205z" transform="translate(9 6) translate(9.824 9.57) translate(-27.467)"/>
        </g>
    </g>
</svg>
