<svg xmlns="http://www.w3.org/2000/svg" width="167" height="167" viewBox="0 0 167 167">
    <g transform="translate(-1588 -389)">
        <circle cx="83.5" cy="83.5" r="83.5" fill="#f6f7f5" transform="translate(1588 389)"/>
        <g>
            <path fill="none" d="M0 0h67.314v67.314H0z" transform="translate(1638 438.481)"/>
            <path fill="#1f8641" d="M26.438 57.193a5.626 5.626 0 0 0 5.61-5.61H20.829a5.626 5.626 0 0 0 5.609 5.61zm16.829-16.829V26.34c0-8.611-4.572-15.819-12.621-17.726V6.707a4.207 4.207 0 1 0-8.414 0v1.907C14.209 10.522 9.61 17.7 9.61 26.34v14.024L4 45.974v2.8h44.876v-2.8zm-5.61 2.8H15.219V26.34c0-6.956 4.235-12.621 11.219-12.621s11.219 5.666 11.219 12.621z" transform="translate(1638 438.481) translate(7.219 4.512)"/>
        </g>
    </g>
</svg>
