<svg xmlns="http://www.w3.org/2000/svg" width="33" height="32" viewBox="0 0 33 32">
    <g>
        <path fill="#edf4e4" d="M0 0H32V33H0z" transform="translate(-23 -277) translate(56 277) rotate(90)"/>
        <path fill="#178a4a" d="M18.274 3.412h.569a.569.569 0 0 0 .569-.569V.569A.569.569 0 0 0 18.843 0h-2.275A.569.569 0 0 0 16 .569v.569H3.412V.569A.569.569 0 0 0 2.843 0H.569A.569.569 0 0 0 0 .569v2.274a.569.569 0 0 0 .569.569h.569v12.587H.569a.569.569 0 0 0-.569.569v2.275a.569.569 0 0 0 .569.569h2.274a.569.569 0 0 0 .569-.569v-.569h12.587v.571a.569.569 0 0 0 .569.569h2.275a.569.569 0 0 0 .569-.569v-2.277a.569.569 0 0 0-.569-.568h-.571v-.038zm-1.137-2.275h1.137v1.138h-1.137zm-16 0h1.138v1.138H1.137zm1.138 17.137H1.137v-1.137h1.138zm16 0h-1.138v-1.137h1.137zM16.568 16a.569.569 0 0 0-.569.569v.571H3.412v-.569A.569.569 0 0 0 2.843 16h-.57V3.412h.569a.569.569 0 0 0 .569-.569v-.568H16v.569a.569.569 0 0 0 .569.569h.569v12.586zm0 0" transform="translate(-23 -277) translate(49.483 283.377) rotate(90)"/>
    </g>
</svg>
